<svg width="192" height="182" viewBox="0 0 192 182" fill="none" xmlns="http://www.w3.org/2000/svg">
<path d="M180 8.53125H152.448C151.206 5.22966 147.906 2.84375 144 2.84375H102C98.094 2.84375 94.794 5.22966 93.552 8.53125H66C61.038 8.53125 57 12.3589 57 17.0625V54.0312H46.782C43.131 54.0312 39.528 54.9384 36.36 56.656L20.202 65.4062H3V116.594H23.091L35.799 124.625C39.261 126.814 43.29 127.969 47.448 127.969H57V170.625C57 175.329 61.038 179.156 66 179.156H180C184.962 179.156 189 175.329 189 170.625V17.0625C189 12.3589 184.962 8.53125 180 8.53125ZM75 76.7812H81C87.618 76.7812 93 71.6796 93 65.4062C93 59.1329 87.618 54.0312 81 54.0312H75V25.5938H93.552C94.794 28.8953 98.094 31.2812 102 31.2812H144C147.906 31.2812 151.206 28.8953 152.448 25.5938H171V162.094H75V76.7812ZM99 11.375C99 9.80525 100.344 8.53125 102 8.53125H144C145.656 8.53125 147 9.80525 147 11.375V22.75C147 24.3197 145.656 25.5938 144 25.5938H102C100.344 25.5938 99 24.3197 99 22.75V11.375ZM63 17.0625C63 15.4928 64.344 14.2188 66 14.2188H93V19.9062H69V54.0312H63V17.0625ZM47.448 122.281C44.478 122.281 41.601 121.457 39.129 119.893L24.909 110.906H9V71.0938H21.798L39.339 61.5928C41.601 60.3671 44.175 59.7188 46.782 59.7188H81C84.309 59.7188 87 62.2696 87 65.4062C87 68.5429 84.309 71.0938 81 71.0938H45V73.9375C45 81.7777 38.271 88.1562 30 88.1562V93.8438C40.563 93.8438 49.326 86.4159 50.787 76.7812H57V122.281H47.448ZM183 170.625C183 172.195 181.656 173.469 180 173.469H66C64.344 173.469 63 172.195 63 170.625V76.7812H69V167.781H177V19.9062H153V14.2188H180C181.656 14.2188 183 15.4928 183 17.0625V170.625Z" fill="#FFFDF6"/>
<path d="M111 14.2188H105V19.9062H111V14.2188Z" fill="#FFFDF6"/>
<path d="M141 14.2188H135V19.9062H141V14.2188Z" fill="#FFFDF6"/>
<path d="M145.119 134.251L134.994 131.509L134.991 130.067C140.43 126.467 144 120.501 144 113.75V108.062C144 97.0885 134.577 88.1562 123 88.1562C111.423 88.1562 102 97.0885 102 108.062V113.75C102 120.495 105.567 126.459 111 130.062V131.512L100.878 134.251C94.473 135.988 90 141.61 90 147.926V156.406H156V147.926C156 141.61 151.527 135.988 145.119 134.251ZM108 113.75V108.062C108 100.222 114.729 93.8438 123 93.8438C131.271 93.8438 138 100.222 138 108.062V113.75C138 121.59 131.271 127.969 123 127.969C114.729 127.969 108 121.59 108 113.75ZM128.895 132.843L123 140.291L117.105 132.843C118.977 133.363 120.954 133.656 123 133.656C125.046 133.656 127.023 133.363 128.895 132.843ZM150 150.719H96V147.926C96 144.138 98.685 140.763 102.528 139.722L112.839 136.929L123 149.772L133.161 136.929L143.472 139.722C147.315 140.763 150 144.138 150 147.926V150.719Z" fill="#FFFDF6"/>
<path d="M87 36.9688H81V42.6562H87V36.9688Z" fill="#FFFDF6"/>
<path d="M165 36.9688H93V42.6562H165V36.9688Z" fill="#FFFDF6"/>
<path d="M165 48.3438H99V54.0312H165V48.3438Z" fill="#FFFDF6"/>
<path d="M165 59.7188H99V65.4062H165V59.7188Z" fill="#FFFDF6"/>
<path d="M165 71.0938H159V76.7812H165V71.0938Z" fill="#FFFDF6"/>
<path d="M153 71.0938H99V76.7812H153V71.0938Z" fill="#FFFDF6"/>
</svg>
