<svg width="163" height="163" viewBox="0 0 163 163" fill="none" xmlns="http://www.w3.org/2000/svg">
<path d="M81.5 101.875V13.5835M81.5 13.5835L101.875 37.3543M81.5 13.5835L61.125 37.3543" stroke="#FFFDF6" stroke-width="10.1875" stroke-linecap="round" stroke-linejoin="round"/>
<path d="M54.3333 149.418H108.667C127.876 149.418 137.481 149.418 143.449 143.45C149.417 137.483 149.417 127.878 149.417 108.668V101.876C149.417 82.6667 149.417 73.062 143.449 67.0941C138.23 61.8755 130.23 61.2204 115.458 61.1382M47.5416 61.1382C32.7696 61.2204 24.7696 61.8755 19.551 67.0941C13.5833 73.062 13.5833 82.6667 13.5833 101.876V108.668C13.5833 127.878 13.5833 137.483 19.551 143.45C21.5872 145.486 24.0467 146.828 27.1666 147.712" stroke="#FFFDF6" stroke-width="10.1875" stroke-linecap="round"/>
</svg>
