<svg width="164" height="169" viewBox="0 0 164 169" fill="none" xmlns="http://www.w3.org/2000/svg">
<path fill-rule="evenodd" clip-rule="evenodd" d="M63.5014 9.10394C64.7829 7.78341 66.521 7.0415 68.3333 7.0415H123C134.322 7.0415 143.5 16.4995 143.5 28.1665V49.2915C143.5 53.1805 140.441 56.3332 136.667 56.3332C132.893 56.3332 129.833 53.1805 129.833 49.2915V28.1665C129.833 24.2775 126.774 21.1248 123 21.1248H75.1667V56.3332C75.1667 60.2221 72.1074 63.3748 68.3333 63.3748H34.1667V140.833C34.1667 144.722 37.2261 147.875 41 147.875H54.6667C58.4406 147.875 61.5 151.027 61.5 154.917C61.5 158.806 58.4406 161.958 54.6667 161.958H41C29.6782 161.958 20.5 152.501 20.5 140.833V56.3332C20.5 54.4656 21.22 52.6745 22.5014 51.3539L63.5014 9.10394ZM43.8304 49.2915H61.5V31.0832L43.8304 49.2915ZM116.167 84.4998C97.2971 84.4998 82 100.263 82 119.708C82 139.153 97.2971 154.917 116.167 154.917C135.036 154.917 150.333 139.153 150.333 119.708C150.333 100.263 135.036 84.4998 116.167 84.4998ZM68.3333 119.708C68.3333 92.4851 89.749 70.4165 116.167 70.4165C142.584 70.4165 164 92.4851 164 119.708C164 146.931 142.584 169 116.167 169C89.749 169 68.3333 146.931 68.3333 119.708ZM138.717 109.85C140.981 106.739 140.369 102.325 137.35 99.9915C134.331 97.6579 130.048 98.2888 127.783 101.4L111.739 123.444L103.623 116.01C100.803 113.426 96.4833 113.688 93.9761 116.595C91.4689 119.501 91.7232 123.952 94.5433 126.536L108.21 139.054C109.639 140.363 111.533 140.995 113.435 140.798C115.336 140.601 117.07 139.592 118.217 138.017L138.717 109.85Z" fill="#FFFDF6"/>
</svg>
