<svg width="140" height="140" viewBox="0 0 140 140" fill="none" xmlns="http://www.w3.org/2000/svg">
<path d="M92.8594 114.762H85.4082C83.9043 114.762 82.6738 113.531 82.6738 112.027V101.404H95.5938V112.027C95.5938 113.531 94.3633 114.762 92.8594 114.762Z" fill="#9EBC8A"/>
<path d="M71.4766 36.4219H67.1699C66.3633 36.4219 65.6934 35.7656 65.6934 34.9453V32.1699C65.6934 31.9648 65.5293 31.7871 65.3105 31.7871H62.5352C61.7285 31.7871 61.0586 31.1309 61.0586 30.3105V26.0039C61.0586 25.1973 61.7148 24.5273 62.5352 24.5273H62.5898V25.6211H62.5352C62.3301 25.6211 62.1523 25.7988 62.1523 26.0039V30.3105C62.1523 30.5156 62.3301 30.6934 62.5352 30.6934H65.3105C66.1172 30.6934 66.7871 31.3496 66.7871 32.1699V34.9453C66.7871 35.1504 66.9648 35.3281 67.1699 35.3281H71.4766C71.6816 35.3281 71.8594 35.1504 71.8594 34.9453V32.1699C71.8594 31.3633 72.5156 30.6934 73.3359 30.6934H76.1113C76.3164 30.6934 76.4941 30.5156 76.4941 30.3105V26.0039C76.4941 25.7988 76.3301 25.6211 76.1113 25.6211H73.3359C72.5293 25.6211 71.8594 24.9648 71.8594 24.1445V21.3691C71.8594 21.1641 71.6953 20.9863 71.4766 20.9863H67.1699C66.9648 20.9863 66.7871 21.1641 66.7871 21.3691V24.1445C66.7871 24.9512 66.1309 25.6211 65.3105 25.6211H64.6133V24.5273H65.3105C65.5156 24.5273 65.6934 24.3633 65.6934 24.1445V21.3691C65.6934 20.5625 66.3496 19.8926 67.1699 19.8926H71.4766C72.2832 19.8926 72.9531 20.5488 72.9531 21.3691V24.1445C72.9531 24.3496 73.1172 24.5273 73.3359 24.5273H76.1113C76.918 24.5273 77.5879 25.1836 77.5879 26.0039V30.3105C77.5879 31.1172 76.9316 31.7871 76.1113 31.7871H73.3359C73.1309 31.7871 72.9531 31.9512 72.9531 32.1699V34.9453C72.9531 35.7656 72.2832 36.4219 71.4766 36.4219Z" fill="#9EBC8A"/>
<path d="M69.7676 79.5156C76.3438 79.5156 82.3594 80.8418 87.6641 83.4668C92.668 85.9414 97.0156 89.5645 100.584 94.2266C104.043 98.752 106.723 104.193 108.541 110.4C110.168 115.965 111.07 122.008 111.234 128.393H28.3008C28.4648 122.008 29.3672 115.965 30.9941 110.4C32.8125 104.207 35.4922 98.7656 38.9512 94.2266C42.5195 89.5645 46.8672 85.9414 51.8711 83.4668C57.1621 80.8418 63.1777 79.5156 69.7676 79.5156ZM69.7676 77.4648C41.3164 77.4648 26.2227 101.172 26.2227 130.43H113.299C113.299 101.172 98.2051 77.4648 69.7676 77.4648Z" fill="#FFFDF6"/>
<path d="M70.1914 112.547C68.5234 112.547 67.1836 111.193 67.1836 109.539C67.1836 107.871 68.5371 106.531 70.1914 106.531C71.8594 106.531 73.1992 107.885 73.1992 109.539C73.2129 111.193 71.8594 112.547 70.1914 112.547ZM70.1914 107.611C69.1387 107.611 68.2773 108.473 68.2773 109.525C68.2773 110.578 69.1387 111.439 70.1914 111.439C71.2441 111.439 72.1055 110.578 72.1055 109.525C72.1191 108.473 71.2578 107.611 70.1914 107.611ZM70.1914 124.592C68.5234 124.592 67.1836 123.238 67.1836 121.584C67.1836 119.93 68.5371 118.576 70.1914 118.576C71.8594 118.576 73.1992 119.93 73.1992 121.584C73.1992 123.238 71.8594 124.592 70.1914 124.592ZM70.1914 119.656C69.1387 119.656 68.2773 120.518 68.2773 121.57C68.2773 122.623 69.1387 123.484 70.1914 123.484C71.2441 123.484 72.1055 122.623 72.1055 121.57C72.1055 120.518 71.2578 119.656 70.1914 119.656ZM70.6152 74.498H68.0312C62.1797 74.498 56.6562 72.2012 52.4863 68.0312C48.3164 63.8613 46.0195 58.3379 46.0195 52.4863V43.4219H91.5879C92.1621 43.4219 92.627 43.8867 92.627 44.4609V52.4863C92.627 58.3379 90.3301 63.8613 86.1602 68.0312C81.9902 72.2012 76.4668 74.498 70.6152 74.498ZM48.0703 45.4727V52.4863C48.0703 57.791 50.1484 62.7949 53.9355 66.582C57.7227 70.3691 62.7266 72.4473 68.0312 72.4473H70.6152C75.9199 72.4473 80.9238 70.3691 84.7109 66.582C88.498 62.7949 90.5762 57.791 90.5762 52.4863V45.4727H48.0703Z" fill="#FFFDF6"/>
<path d="M92.627 45.4727H46.0195V18.416C46.0195 16.5977 47.0996 14.9297 48.7539 14.1777C52.8965 12.3047 61.1133 9.16016 69.7676 9.16016C78.3945 9.16016 86.1465 12.2773 90.0019 14.1504C91.6016 14.916 92.627 16.5703 92.627 18.3477V45.4727ZM48.0703 43.4219H90.5762V18.3477C90.5762 17.3496 90.002 16.4336 89.0996 16.0098C85.4082 14.2187 77.9707 11.2246 69.7539 11.2246C61.4824 11.2246 53.5801 14.2461 49.6016 16.0508C48.6719 16.4746 48.0703 17.4043 48.0703 18.4297V43.4219ZM70.1914 94.6914C63.4922 94.6914 58.0371 89.2363 58.0371 82.5371V79.7754H59.1309V82.5371C59.1309 88.6348 64.0938 93.5977 70.1914 93.5977C76.2891 93.5977 81.2519 88.6348 81.2519 82.5371V80.2129H82.3457V82.5371C82.3594 89.2363 76.9043 94.6914 70.1914 94.6914ZM92.8594 114.871H83.8086C82.0039 114.871 80.5273 113.395 80.5273 111.59V99.2578H96.1406V111.59C96.1406 113.395 94.6641 114.871 92.8594 114.871ZM81.6211 100.352V111.59C81.6211 112.793 82.6055 113.777 83.8086 113.777H92.8594C94.0625 113.777 95.0469 112.793 95.0469 111.59V100.352H81.6211Z" fill="#FFFDF6"/>
<path d="M88.8809 99.9551H87.7871V97.2754C87.7871 96.25 86.9531 95.4297 85.9414 95.4297C84.9297 95.4297 84.0957 96.2637 84.0957 97.2754H83.002C83.002 95.6484 84.3281 94.3359 85.9414 94.3359C87.5547 94.3359 88.8809 95.6621 88.8809 97.2754V99.9551Z" fill="#FFFDF6"/>
<path d="M76.877 104.412C72.8984 104.412 69.6582 101.172 69.6582 97.1934V94.1445H70.752V97.1934C70.752 100.57 73.5 103.318 76.877 103.318C80.2539 103.318 83.0019 100.57 83.0019 97.1934H84.0957C84.0957 101.172 80.8555 104.412 76.877 104.412Z" fill="#FFFDF6"/>
</svg>
