<svg width="175" height="174" viewBox="0 0 175 174" fill="none" xmlns="http://www.w3.org/2000/svg">
<path d="M145.833 170.375H29.1667C27.2328 170.375 25.3781 169.611 24.0107 168.252C22.6432 166.892 21.875 165.048 21.875 163.125V10.875C21.875 8.95218 22.6432 7.10811 24.0107 5.74848C25.3781 4.38884 27.2328 3.625 29.1667 3.625H145.833C147.767 3.625 149.622 4.38884 150.989 5.74848C152.357 7.10811 153.125 8.95218 153.125 10.875V163.125C153.125 165.048 152.357 166.892 150.989 168.252C149.622 169.611 147.767 170.375 145.833 170.375ZM36.4583 155.875H138.542V18.125H36.4583V155.875Z" fill="#FFFDF6" stroke="#FFFDF6" stroke-width="2.83333"/>
<path d="M54.6876 68.8752C53.2499 68.8692 51.846 68.4407 50.6526 67.6437C49.4591 66.8466 48.5292 65.7166 47.9798 64.3955C47.4305 63.0745 47.2861 61.6215 47.565 60.2192C47.8438 58.8168 48.5333 57.5277 49.5469 56.5139L64.1303 42.0139C65.2148 40.9396 66.6118 40.232 68.1234 39.9912C69.635 39.7505 71.1844 39.9889 72.5522 40.6727L82.8699 45.8202L101.099 30.7402C102.35 29.6957 103.918 29.0994 105.551 29.0468C107.184 28.9942 108.788 29.4884 110.104 30.4502L124.688 41.3252C126.235 42.4789 127.257 44.1964 127.531 46.0999C127.804 48.0033 127.306 49.9369 126.146 51.4752C124.986 53.0134 123.258 54.0304 121.344 54.3023C119.429 54.5742 117.485 54.0789 115.938 52.9252L105.984 45.4939L88.5209 59.9939C87.4326 60.8914 86.1052 61.4549 84.7006 61.6158C83.2959 61.7767 81.8745 61.528 80.6094 60.9002L70.7292 55.9339L59.7917 66.8089C58.4277 68.135 56.5953 68.8768 54.6876 68.8752Z" fill="#FFFDF6" stroke="#FFFDF6" stroke-width="2.83333"/>
<path d="M54.6874 94.25C58.7145 94.25 61.9791 91.0041 61.9791 87C61.9791 82.9959 58.7145 79.75 54.6874 79.75C50.6603 79.75 47.3958 82.9959 47.3958 87C47.3958 91.0041 50.6603 94.25 54.6874 94.25Z" fill="#FFFDF6" stroke="#FFFDF6" stroke-width="2.83333"/>
<path d="M54.6874 119.625C58.7145 119.625 61.9791 116.379 61.9791 112.375C61.9791 108.371 58.7145 105.125 54.6874 105.125C50.6603 105.125 47.3958 108.371 47.3958 112.375C47.3958 116.379 50.6603 119.625 54.6874 119.625Z" fill="#FFFDF6" stroke="#FFFDF6" stroke-width="2.83333"/>
<path d="M54.6874 145C58.7145 145 61.9791 141.754 61.9791 137.75C61.9791 133.746 58.7145 130.5 54.6874 130.5C50.6603 130.5 47.3958 133.746 47.3958 137.75C47.3958 141.754 50.6603 145 54.6874 145Z" fill="#FFFDF6" stroke="#FFFDF6" stroke-width="2.83333"/>
<path d="M120.313 94.25H80.2084C78.2745 94.25 76.4199 93.4862 75.0524 92.1265C73.685 90.7669 72.9167 88.9228 72.9167 87C72.9167 85.0772 73.685 83.2331 75.0524 81.8735C76.4199 80.5138 78.2745 79.75 80.2084 79.75H120.313C122.246 79.75 124.101 80.5138 125.469 81.8735C126.836 83.2331 127.604 85.0772 127.604 87C127.604 88.9228 126.836 90.7669 125.469 92.1265C124.101 93.4862 122.246 94.25 120.313 94.25Z" fill="#FFFDF6" stroke="#FFFDF6" stroke-width="2.83333"/>
<path d="M120.313 119.625H80.2084C78.2745 119.625 76.4199 118.861 75.0524 117.502C73.685 116.142 72.9167 114.298 72.9167 112.375C72.9167 110.452 73.685 108.608 75.0524 107.248C76.4199 105.889 78.2745 105.125 80.2084 105.125H120.313C122.246 105.125 124.101 105.889 125.469 107.248C126.836 108.608 127.604 110.452 127.604 112.375C127.604 114.298 126.836 116.142 125.469 117.502C124.101 118.861 122.246 119.625 120.313 119.625Z" fill="#FFFDF6" stroke="#FFFDF6" stroke-width="2.83333"/>
<path d="M120.313 145H80.2084C78.2745 145 76.4199 144.236 75.0524 142.877C73.685 141.517 72.9167 139.673 72.9167 137.75C72.9167 135.827 73.685 133.983 75.0524 132.623C76.4199 131.264 78.2745 130.5 80.2084 130.5H120.313C122.246 130.5 124.101 131.264 125.469 132.623C126.836 133.983 127.604 135.827 127.604 137.75C127.604 139.673 126.836 141.517 125.469 142.877C124.101 144.236 122.246 145 120.313 145Z" fill="#FFFDF6" stroke="#FFFDF6" stroke-width="2.83333"/>
</svg>
