<svg width="160" height="166" viewBox="0 0 160 166" fill="none" xmlns="http://www.w3.org/2000/svg">
<path d="M116.737 88.1853L85.0358 121.075C77.3027 129.098 77.3027 142.106 85.0358 150.129C92.769 158.152 105.307 158.152 113.04 150.129L144.741 117.24C152.474 109.217 152.474 96.2084 144.741 88.1853C137.008 80.1621 124.47 80.1621 116.737 88.1853Z" fill="#9EBC8A"/>
<path d="M63.3665 82.1779V49.3066M79.2081 65.7423H47.5249M127.683 132.471L102.02 105.845M116.673 88.1769C120.409 84.3528 125.445 82.2087 130.693 82.2087C135.941 82.2087 140.978 84.3528 144.713 88.1769C148.399 92.0524 150.466 97.2779 150.466 102.722C150.466 108.167 148.399 113.393 144.713 117.268L113.03 150.139C109.294 153.963 104.258 156.108 99.01 156.108C93.7623 156.108 88.7256 153.963 84.9902 150.139C81.3043 146.264 79.2377 141.038 79.2377 135.594C79.2377 130.149 81.3043 124.924 84.9902 121.048L116.673 88.1769Z" stroke="#FFFDF6" stroke-width="13.1683" stroke-linecap="round" stroke-linejoin="round"/>
<path d="M47.5249 156.139H15.8417C13.741 156.139 11.7263 155.273 10.2408 153.732C8.75541 152.19 7.9209 150.1 7.9209 147.921V16.4356C7.9209 14.2561 8.75541 12.1659 10.2408 10.6247C11.7263 9.08358 13.741 8.21777 15.8417 8.21777H110.891C112.992 8.21777 115.007 9.08358 116.492 10.6247C117.977 12.1659 118.812 14.2561 118.812 16.4356V49.3069" stroke="#FFFDF6" stroke-width="13.1683" stroke-linecap="round" stroke-linejoin="round"/>
</svg>
