<svg width="118" height="111" viewBox="0 0 118 111" fill="none" xmlns="http://www.w3.org/2000/svg">
<path d="M90.9583 41.6251H81.125M81.125 41.6251H71.2916M81.125 41.6251V32.375M81.125 41.6251V50.875" stroke="#FFFDF6" stroke-width="4" stroke-linecap="round"/>
<path d="M59 25.7803L56.3066 28.1493C57.0038 28.8509 57.9788 29.249 59 29.249C60.0212 29.249 60.9962 28.8509 61.6933 28.1493L59 25.7803ZM13.037 63.2797C14.0909 64.9193 16.358 65.4442 18.1006 64.4531C19.8432 63.4615 20.4015 61.3289 19.3476 59.6898L13.037 63.2797ZM32.1419 74.7895C30.7211 73.4168 28.3865 73.3876 26.9274 74.7243C25.4683 76.0604 25.4373 78.2568 26.8581 79.6291L32.1419 74.7895ZM13.5208 43.0934C13.5208 29.6596 19.7535 21.355 27.4646 18.5147C35.1587 15.6807 45.9236 17.7035 56.3066 28.1493L61.6933 23.4112C49.9523 11.5987 36.1337 7.87113 24.7756 12.0548C13.4344 16.2322 6.14581 27.7134 6.14581 43.0934H13.5208ZM76.2619 92.3196C83.5995 86.7183 92.391 79.2114 99.3791 70.8272C106.296 62.5281 111.854 52.8887 111.854 43.0933H104.479C104.479 50.5461 100.156 58.6515 93.5755 66.5463C87.0663 74.3561 78.7433 81.4911 71.6147 86.9329L76.2619 92.3196ZM111.854 43.0933C111.854 27.7133 104.566 16.2322 93.2244 12.0548C81.8664 7.87113 68.0476 11.5987 56.3066 23.4112L61.6933 28.1493C72.0763 17.7035 82.8414 15.6807 90.5355 18.5147C98.2463 21.355 104.479 29.6595 104.479 43.0933H111.854ZM41.7383 92.3196C47.9895 97.0917 52.3246 100.594 59 100.594V93.6562C55.4457 93.6562 53.2322 92.1591 46.3854 86.9329L41.7383 92.3196ZM71.6147 86.9329C64.7677 92.1591 62.5542 93.6562 59 93.6562V100.594C65.6753 100.594 70.0104 97.0917 76.2619 92.3196L71.6147 86.9329ZM19.3476 59.6898C15.6749 53.9774 13.5208 48.3544 13.5208 43.0934H6.14581C6.14581 50.0873 8.98008 56.9703 13.037 63.2797L19.3476 59.6898ZM46.3854 86.9329C41.8768 83.491 36.8697 79.3567 32.1419 74.7895L26.8581 79.6291C31.8378 84.4395 37.0714 88.7574 41.7383 92.3196L46.3854 86.9329Z" fill="#FFFDF6"/>
</svg>
